# xmcd
#
# Track frame offsets: 
#        150
#        12227
#        24505
#        38786
#        57290
#        70942
#        85193
#        94645
#        111276
#        131335
#        147162
#        161938
#        174240
#        192167
#
# Disc length: 2775 seconds
#
# Revision: 0
# Processed by: cddbd v1.5.2PL0 Copyright (c) Steve Scherf et al.
# Submitted via: ExactAudioCopy v0.99pb5
#
DISCID=b40ad50e
DTITLE=Blue Harlem - Jump Jack Jump
DYEAR=1900
DGENRE=R&B
TTITLE0=Jump Jack Jump
TTITLE1=Teardrops From My Eyes
TTITLE2=Act Right
TTITLE3=Fever
TTITLE4=Blues For Dudes
TTITLE5=For You My Love
TTITLE6='Til The Well Runs Dry
TTITLE7=Stormy Weather
TTITLE8=Hats Off To Mr Lee
TTITLE9=I Don't Hurt Anymore
TTITLE10=My Baby Just Cares For Me
TTITLE11=What Good'll It Do Me
TTITLE12=Birthday Blues
TTITLE13=The Jeep Is Jumpin'
EXTD=
EXTT0=
EXTT1=
EXTT2=
EXTT3=
EXTT4=
EXTT5=
EXTT6=
EXTT7=
EXTT8=
EXTT9=
EXTT10=
EXTT11=
EXTT12=
EXTT13=
PLAYORDER=
